<?xml version="1.0" encoding="UTF-8" standalone="no"?>
<!-- Created with Inkscape (http://www.inkscape.org/) -->

<svg
   xmlns:dc="http://purl.org/dc/elements/1.1/"
   xmlns:cc="http://creativecommons.org/ns#"
   xmlns:rdf="http://www.w3.org/1999/02/22-rdf-syntax-ns#"
   xmlns:svg="http://www.w3.org/2000/svg"
   xmlns="http://www.w3.org/2000/svg"
   xmlns:sodipodi="http://sodipodi.sourceforge.net/DTD/sodipodi-0.dtd"
   xmlns:inkscape="http://www.inkscape.org/namespaces/inkscape"
   width="545.05737"
   height="178.64679"
   id="svg2"
   version="1.1"
   inkscape:version="0.48.4 r9939"
   sodipodi:docname="logo_WHITE_70percent_alpha.svg"
   inkscape:export-filename="/home/stankovski/Dropbox/PSEUDODOJO/logo/logo_BLACK.png"
   inkscape:export-xdpi="90"
   inkscape:export-ydpi="90">
  <defs
     id="defs4" />
  <sodipodi:namedview
     id="base"
     pagecolor="#ffffff"
     bordercolor="#666666"
     borderopacity="1.0"
     inkscape:pageopacity="0.0"
     inkscape:pageshadow="2"
     inkscape:zoom="0.62886082"
     inkscape:cx="-154.62395"
     inkscape:cy="20.898301"
     inkscape:document-units="px"
     inkscape:current-layer="layer1"
     showgrid="false"
     inkscape:snap-smooth-nodes="true"
     inkscape:snap-object-midpoints="true"
     inkscape:snap-bbox="true"
     inkscape:snap-bbox-midpoints="true"
     inkscape:object-paths="true"
     inkscape:object-nodes="true"
     inkscape:snap-global="false"
     showguides="true"
     inkscape:guide-bbox="true"
     inkscape:window-width="1440"
     inkscape:window-height="853"
     inkscape:window-x="1277"
     inkscape:window-y="-3"
     inkscape:window-maximized="1"
     fit-margin-top="0"
     fit-margin-left="0"
     fit-margin-right="0"
     fit-margin-bottom="0" />
  <metadata
     id="metadata7">
    <rdf:RDF>
      <cc:Work
         rdf:about="">
        <dc:format>image/svg+xml</dc:format>
        <dc:type
           rdf:resource="http://purl.org/dc/dcmitype/StillImage" />
        <dc:title></dc:title>
      </cc:Work>
    </rdf:RDF>
  </metadata>
  <g
     inkscape:label="Layer 1"
     inkscape:groupmode="layer"
     id="layer1"
     transform="translate(-90.012765,-765.72663)">
    <g
       id="g3279"
       transform="matrix(1.5438226,0,0,1.5438226,-143.25088,656.09709)" />
    <path
       style="font-size:medium;font-style:normal;font-variant:normal;font-weight:normal;font-stretch:normal;text-indent:0;text-align:start;text-decoration:none;line-height:normal;letter-spacing:normal;word-spacing:normal;text-transform:none;direction:ltr;block-progression:tb;writing-mode:lr-tb;text-anchor:start;baseline-shift:baseline;opacity:0.7;color:#000000;fill:#000000;fill-opacity:1;stroke:none;stroke-width:2.22191119000000015;marker:none;visibility:visible;display:inline;overflow:visible;enable-background:accumulate;font-family:Sans;-inkscape-font-specification:Sans"
       d="M 88.28125 0 C 79.95354 0 73.21875 6.76604 73.21875 15.09375 C 73.21875 23.42146 79.95354 30.15625 88.28125 30.15625 C 96.60896 30.15625 103.375 23.42146 103.375 15.09375 C 103.375 6.76604 96.60896 0 88.28125 0 z M 113.75 14.28125 A 5.162578 5.162578 0 0 0 112.46875 24.375 C 136.88256 32.770637 154.01279 52.602977 160 75.8125 L 113.28125 75.8125 C 112.92889 75.8125 112.65625 76.08515 112.65625 76.4375 L 112.65625 112.15625 C 112.65625 112.50862 112.92889 112.78125 113.28125 112.78125 L 159.9375 112.78125 C 159.46374 114.60905 158.93331 116.43337 158.3125 118.25 L 158.3125 118.375 C 145.00747 157.0648 103.00229 177.55497 64.3125 164.25 C 39.892621 155.85228 22.744131 136.00013 16.75 112.78125 L 63.5 112.78125 C 63.85237 112.78125 64.125 112.50862 64.125 112.15625 L 64.125 76.4375 C 64.125 76.08515 63.85237 75.8125 63.5 75.8125 L 16.78125 75.8125 C 17.264668 73.950769 17.801303 72.100007 18.4375 70.25 C 25.65903 49.25032 41.95035 32.53864 62.78125 24.84375 A 5.162578 5.162578 0 1 0 59.21875 15.28125 C 35.67592 23.97791 17.136308 42.71971 8.8125 66.375 L 8.625 66.9375 C 7.6122699 69.882428 6.7964221 72.842092 6.125 75.8125 L 0.625 75.8125 C 0.272636 75.8125 0 76.08515 0 76.4375 L 0 112.15625 C 0 112.50862 0.272636 112.78125 0.625 112.78125 L 6.125 112.78125 C 12.373073 140.36603 32.342466 164.20747 61 174.0625 C 104.96609 189.18198 153.00553 165.65358 168.125 121.6875 C 169.14138 118.73196 169.98362 115.76241 170.65625 112.78125 L 176.15625 112.78125 C 176.50861 112.78125 176.78125 112.50862 176.78125 112.15625 L 176.78125 76.4375 C 176.78125 76.08515 176.50861 75.8125 176.15625 75.8125 L 170.59375 75.8125 C 164.33621 48.243391 144.39473 24.413115 115.75 14.5625 A 5.162578 5.162578 0 0 0 113.75 14.28125 z M 66.5 71.78125 C 66.14764 71.78125 65.84375 72.05388 65.84375 72.40625 L 65.84375 116.1875 C 65.84375 116.53987 66.14764 116.84375 66.5 116.84375 L 110.28125 116.84375 C 110.63362 116.84375 110.90625 116.53987 110.90625 116.1875 L 110.90625 72.40625 C 110.90625 72.05388 110.63362 71.78125 110.28125 71.78125 L 66.5 71.78125 z "
       transform="translate(90.012765,765.72663)"
       id="path3380" />
    <path
       inkscape:connector-curvature="0"
       id="path3396"
       style="font-size:110.09886932000000570px;font-style:normal;font-variant:normal;font-weight:normal;font-stretch:normal;line-height:125%;letter-spacing:0px;word-spacing:0px;opacity:0.7;fill:#000000;fill-opacity:1;stroke:none;font-family:Days;-inkscape-font-specification:Days"
       d="m 330.10655,798.75507 c 8.70899,0 15.15002,1.81438 15.15002,12.1563 0,10.34192 -6.44103,12.15631 -15.15002,12.15631 l -16.14792,0 0,-24.31261 16.14792,0 M 301.34873,786.2359 c -2.26796,0 -4.08233,1.81437 -4.08233,4.17306 l 0,55.15695 c 0,2.26796 1.90508,4.17306 4.17305,4.17306 l 8.34612,0 c 2.35868,0 4.17306,-1.9051 4.17306,-4.17306 l 0,-9.97906 21.22817,0 c 16.87365,0 26.76201,-7.62038 26.76201,-24.67548 0,-17.05509 -9.88836,-24.67547 -26.76201,-24.67547 l -33.83807,0" />
    <path
       inkscape:connector-curvature="0"
       id="path3398"
       style="font-size:82.57415770999999438px;font-style:normal;font-variant:normal;font-weight:normal;font-stretch:normal;line-height:125%;letter-spacing:0px;word-spacing:0px;opacity:0.7;fill:#000000;fill-opacity:1;stroke:none;font-family:Days;-inkscape-font-specification:Days"
       d="m 366.18849,815.71946 c 0,17.62208 35.99263,13.19957 35.99263,21.0921 0,2.38136 -1.76901,3.81018 -5.85135,3.81018 l -11.63468,0 c -3.40194,0 -5.98742,-1.08863 -7.07605,-3.40195 -1.08862,-2.24528 -2.58548,-3.1298 -4.49057,-3.1298 l -3.94626,0 c -0.88451,0 -3.40195,0.61236 -3.40195,3.67411 0,7.28017 9.18527,12.24702 17.75817,12.24702 l 10.06978,0 c 16.32935,0 21.09209,-5.71529 21.09209,-13.87995 0,-17.75817 -35.99263,-13.19958 -35.99263,-21.0921 0,-2.38136 1.76901,-3.81019 5.85135,-3.81019 l 10.00174,0 c 3.40194,0 5.98742,1.08863 7.07605,3.40196 1.08863,2.24529 2.58549,3.12979 4.49057,3.12979 l 3.94627,0 c 0.88451,0 3.40195,-0.61235 3.40195,-3.6741 0,-7.28017 -9.18528,-12.24703 -17.75818,-12.24703 l -8.43684,0 c -16.32935,0 -21.09209,5.71529 -21.09209,13.87996" />
    <path
       inkscape:connector-curvature="0"
       id="path3400"
       style="font-size:82.57415770999999438px;font-style:normal;font-variant:normal;font-weight:normal;font-stretch:normal;line-height:125%;letter-spacing:0px;word-spacing:0px;opacity:0.7;fill:#000000;fill-opacity:1;stroke:none;font-family:Days;-inkscape-font-specification:Days"
       d="m 462.96016,802.11166 -38.30596,0 c -1.70098,0 -3.1298,1.36078 -3.1298,3.06175 l 0,41.36772 c 0,1.76902 1.36079,3.19784 3.1298,3.19784 l 38.16988,0 c 1.76901,0 3.1298,-1.42882 3.1298,-3.12979 l 0,-3.19784 c 0,-1.70097 -1.36079,-3.06176 -3.06176,-3.06176 l -28.84854,0 0,-9.79761 24.90228,0 c 1.70097,0 3.12979,-1.42882 3.12979,-3.1298 l 0,-3.12979 c 0,-1.70098 -1.42882,-3.1298 -3.12979,-3.1298 l -24.90228,0 0,-9.66154 28.91658,0 c 1.70097,0 3.12979,-1.36077 3.12979,-3.12979 l 0,-3.12979 c 0,-1.76902 -1.42882,-3.1298 -3.12979,-3.1298" />
    <path
       inkscape:connector-curvature="0"
       id="path3402"
       style="font-size:82.57415770999999438px;font-style:normal;font-variant:normal;font-weight:normal;font-stretch:normal;line-height:125%;letter-spacing:0px;word-spacing:0px;opacity:0.7;fill:#000000;fill-opacity:1;stroke:none;font-family:Days;-inkscape-font-specification:Days"
       d="m 492.77082,840.62174 c -6.05547,0 -8.77703,-3.1298 -8.77703,-9.66154 l 0,-25.71874 c 0,-1.76902 -1.42882,-3.1298 -3.1298,-3.1298 l -6.19154,0 c -1.76902,0 -3.19784,1.36078 -3.19784,3.1298 l 0,25.6507 c 0,12.0429 7.07607,19.11896 20.95601,19.11896 l 5.98744,0 c 13.87994,0 20.95601,-7.07606 20.95601,-19.11896 l 0,-25.6507 c 0,-1.76902 -1.42882,-3.1298 -3.19783,-3.1298 l -6.19156,0 c -1.70097,0 -3.12979,1.36078 -3.12979,3.1298 l 0,25.71874 c 0,6.53174 -2.72156,9.66154 -8.77703,9.66154 l -5.30704,0" />
    <path
       inkscape:connector-curvature="0"
       id="path3404"
       style="font-size:82.57415770999999438px;font-style:normal;font-variant:normal;font-weight:normal;font-stretch:normal;line-height:125%;letter-spacing:0px;word-spacing:0px;opacity:0.7;fill:#000000;fill-opacity:1;stroke:none;font-family:Days;-inkscape-font-specification:Days"
       d="m 531.36383,802.11166 c -1.76902,0 -3.1298,1.42882 -3.1298,3.19783 l 0,41.36772 c 0,1.70097 1.42882,3.06176 3.1298,3.06176 l 18.57464,0 c 19.3911,0 27.5558,-7.55235 27.5558,-23.81366 0,-16.2613 -8.1647,-23.81365 -27.5558,-23.81365 l -18.57464,0 m 18.23445,9.38938 c 12.17897,0 15.37681,4.21843 15.37681,14.42427 0,10.20584 -3.19784,14.42427 -15.37681,14.42427 l -8.84507,0 0,-28.84854 8.84507,0" />
    <path
       inkscape:connector-curvature="0"
       id="path3406"
       style="font-size:82.57415770999999438px;font-style:normal;font-variant:normal;font-weight:normal;font-stretch:normal;line-height:125%;letter-spacing:0px;word-spacing:0px;opacity:0.7;fill:#000000;fill-opacity:1;stroke:none;font-family:Days;-inkscape-font-specification:Days"
       d="m 608.33081,810.07222 c 10.20584,0 14.22015,5.64725 14.22015,15.85309 0,10.20584 -4.01431,15.85309 -14.22015,15.85309 -10.20584,0 -14.22016,-5.64725 -14.22016,-15.85309 0,-10.20584 4.01432,-15.85309 14.22016,-15.85309 m -26.73934,15.85309 c 0,17.69013 9.7296,24.83424 26.73934,24.83424 17.00973,0 26.73932,-7.14411 26.73932,-24.83424 0,-17.69012 -9.72959,-24.83424 -26.73932,-24.83424 -17.00974,0 -26.73934,7.14412 -26.73934,24.83424" />
    <path
       style="font-size:110.09886932000000570px;font-style:normal;font-variant:normal;font-weight:normal;font-stretch:normal;line-height:125%;letter-spacing:0px;word-spacing:0px;opacity:0.7;fill:#000000;fill-opacity:1;stroke:none;font-family:Days;-inkscape-font-specification:Days"
       inkscape:connector-curvature="0"
       id="path3410"
       d="m 592.90863,786.12136 c -1.54222,0 -2.72156,1.17933 -2.72156,2.72155 l 0,5.26169 c 0,1.54222 1.17934,2.72155 2.72156,2.72155 l 30.84435,0 c 1.54221,0 2.72156,-1.17933 2.72156,-2.72155 l 0,-5.26169 c 0,-1.54222 -1.17935,-2.72155 -2.72156,-2.72155 l -30.84435,0" />
    <path
       inkscape:connector-curvature="0"
       id="path3414"
       style="font-size:110.09886932000000570px;font-style:normal;font-variant:normal;font-weight:normal;font-stretch:normal;line-height:125%;letter-spacing:0px;word-spacing:0px;opacity:0.7;fill:#000000;fill-opacity:1;stroke:none;font-family:Days;-inkscape-font-specification:Days"
       d="m 301.43946,869.90905 c -2.35869,0 -4.17306,1.9051 -4.17306,4.26378 l 0,55.15695 c 0,2.26797 1.90509,4.08234 4.17306,4.08234 l 24.76619,0 c 25.8548,0 36.74106,-10.06979 36.74106,-31.75154 0,-21.68174 -10.88626,-31.75153 -36.74106,-31.75153 l -24.76619,0 m 24.3126,12.51917 c 16.23862,0 20.50242,5.62458 20.50242,19.23236 0,13.6078 -4.2638,19.23236 -20.50242,19.23236 l -11.79343,0 0,-38.46472 11.79343,0" />
    <path
       inkscape:connector-curvature="0"
       id="path3416"
       style="font-size:82.57415770999999438px;font-style:normal;font-variant:normal;font-weight:normal;font-stretch:normal;line-height:125%;letter-spacing:0px;word-spacing:0px;opacity:0.7;fill:#000000;fill-opacity:1;stroke:none;font-family:Days;-inkscape-font-specification:Days"
       d="m 394.46864,893.74538 c 10.20584,0 14.22015,5.64725 14.22015,15.85309 0,10.20584 -4.01431,15.85309 -14.22015,15.85309 -10.20584,0 -14.22016,-5.64725 -14.22016,-15.85309 0,-10.20584 4.01432,-15.85309 14.22016,-15.85309 m -26.73933,15.85309 c 0,17.69012 9.72959,24.83424 26.73933,24.83424 17.00973,0 26.73933,-7.14412 26.73933,-24.83424 0,-17.69013 -9.7296,-24.83424 -26.73933,-24.83424 -17.00974,0 -26.73933,7.14411 -26.73933,24.83424" />
    <path
       inkscape:connector-curvature="0"
       id="path3418"
       style="font-size:82.57415770999999438px;font-style:normal;font-variant:normal;font-weight:normal;font-stretch:normal;line-height:125%;letter-spacing:0px;word-spacing:0px;opacity:0.7;fill:#000000;fill-opacity:1;stroke:none;font-family:Days;-inkscape-font-specification:Days"
       d="m 434.3874,933.41212 c 12.58721,0 20.95602,-6.19156 20.95602,-17.75818 l 0,-26.73933 c 0,-1.76902 -1.42882,-3.12979 -3.19783,-3.12979 l -6.19155,0 c -1.70097,0 -3.12979,1.36077 -3.12979,3.12979 l 0,26.80737 c 0,6.05546 -2.65353,8.30075 -8.77704,8.30075 l -2.38136,0 c -1.97313,0 -3.74215,-0.61234 -5.5792,-0.61234 l -1.08863,0 c -1.76901,0 -3.12979,1.36078 -3.12979,3.12979 l 0,3.74215 c 0,1.70097 1.36078,3.12979 3.12979,3.12979 l 9.38938,0" />
    <path
       inkscape:connector-curvature="0"
       id="path3420"
       style="font-size:82.57415770999999438px;font-style:normal;font-variant:normal;font-weight:normal;font-stretch:normal;line-height:125%;letter-spacing:0px;word-spacing:0px;opacity:0.7;fill:#000000;fill-opacity:1;stroke:none;font-family:Days;-inkscape-font-specification:Days"
       d="m 488.25625,893.74538 c 10.20584,0 14.22016,5.64725 14.22016,15.85309 0,10.20584 -4.01432,15.85309 -14.22016,15.85309 -10.20584,0 -14.22015,-5.64725 -14.22015,-15.85309 0,-10.20584 4.01431,-15.85309 14.22015,-15.85309 m -26.73933,15.85309 c 0,17.69012 9.7296,24.83424 26.73933,24.83424 17.00974,0 26.73933,-7.14412 26.73933,-24.83424 0,-17.69013 -9.72959,-24.83424 -26.73933,-24.83424 -17.00973,0 -26.73933,7.14411 -26.73933,24.83424" />
    <path
       style="font-size:110.09886932000000570px;font-style:normal;font-variant:normal;font-weight:normal;font-stretch:normal;line-height:125%;letter-spacing:0px;word-spacing:0px;opacity:0.7;fill:#000000;fill-opacity:1;stroke:none;font-family:Days;-inkscape-font-specification:Days"
       inkscape:connector-curvature="0"
       id="path3424"
       d="m 379.04647,869.79451 c -1.54222,0 -2.72156,1.17934 -2.72156,2.72156 l 0,5.26168 c 0,1.54222 1.17934,2.72156 2.72156,2.72156 l 30.84434,0 c 1.54222,0 2.72157,-1.17934 2.72157,-2.72156 l 0,-5.26168 c 0,-1.54222 -1.17935,-2.72156 -2.72157,-2.72156 l -30.84434,0" />
    <path
       style="font-size:110.09886932000000570px;font-style:normal;font-variant:normal;font-weight:normal;font-stretch:normal;line-height:125%;letter-spacing:0px;word-spacing:0px;opacity:0.7;fill:#000000;fill-opacity:1;stroke:none;font-family:Days;-inkscape-font-specification:Days"
       inkscape:connector-curvature="0"
       id="path3428"
       d="m 472.83408,869.79451 c -1.54222,0 -2.72157,1.17934 -2.72157,2.72156 l 0,5.26168 c 0,1.54222 1.17935,2.72156 2.72157,2.72156 l 30.84434,0 c 1.54222,0 2.72156,-1.17934 2.72156,-2.72156 l 0,-5.26168 c 0,-1.54222 -1.17934,-2.72156 -2.72156,-2.72156 l -30.84434,0" />
  </g>
</svg>
